<svg width="75" height="75" viewBox="0 0 75 75" fill="none" xmlns="http://www.w3.org/2000/svg">
<rect width="75" height="75" rx="15" fill="#363333"/>
<path fill-rule="evenodd" clip-rule="evenodd" d="M56 37.5C56 26.7304 47.2696 18 36.5 18H56V37.5Z" fill="#EEE2BF"/>
<circle cx="36.5" cy="37.5" r="19.5" fill="#EEE2BF"/>
<path d="M32.4697 45.0632H38.6013C40.831 45.0632 42.1548 43.6348 42.1548 41.7535C42.1548 39.7329 40.831 38.8271 38.671 38.8271H32.4697V45.0632ZM38.2877 29.8735H32.4697V34.8903H38.5665C40.4826 34.8903 41.4929 34.0194 41.4929 32.3819C41.4929 30.6052 40.5523 29.8735 38.2877 29.8735ZM38.2181 49H27.8013V25.8671H39.1935C43.7226 25.8671 46.1613 28.3058 46.1613 32.1729C46.1613 34.1587 44.9419 35.831 43.3394 36.4929C45.2903 37.2245 46.8581 38.7923 46.8581 42.1019C46.8581 46.3174 44.0361 49 38.2181 49Z" fill="#363333"/>
</svg>
